<svg width="321" height="81" viewBox="0 0 321 81" fill="none" xmlns="http://www.w3.org/2000/svg">
<path d="M31.9864 27.4922H24.8028L31.4808 15.5921V1.66642H37.4434V22.0352C37.4434 23.4261 36.9123 24.7645 35.9586 25.7769C34.9274 26.8716 33.4902 27.4922 31.9864 27.4922Z" fill="url(#paint0_linear_2670_1408)" stroke="url(#paint1_linear_2670_1408)" stroke-width="0.506388"/>
<path d="M48.1464 27.4922H55.3301L48.652 15.5921V1.66642H42.6895V22.0352C42.6895 23.4261 43.2206 24.7645 44.1742 25.7769C45.2054 26.8716 46.6426 27.4922 48.1464 27.4922Z" fill="url(#paint2_linear_2670_1408)" stroke="url(#paint3_linear_2670_1408)" stroke-width="0.506388"/>
<path d="M0.425781 78.6377L7.94336 64.8945C8.4319 64.0014 9.3687 63.4463 10.3867 63.4463H70.2725C71.2675 63.4463 72.1871 63.9771 72.6846 64.8389L80.6504 78.6377H0.425781Z" fill="url(#paint4_linear_2670_1408)" stroke="url(#paint5_linear_2670_1408)" stroke-width="0.506388"/>
<path d="M9.0166 59.9033L15.5693 48.165C16.0614 47.2836 16.9925 46.7373 18.002 46.7373H62.6113C63.6208 46.7373 64.5519 47.2836 65.0439 48.165L71.5967 59.9033H9.0166Z" fill="url(#paint6_linear_2670_1408)" stroke="url(#paint7_linear_2670_1408)" stroke-width="0.506388"/>
<path d="M17.1123 42.6846L23.2217 31.0117C23.7023 30.0936 24.6531 29.5186 25.6895 29.5186H54.4473C55.4836 29.5186 56.4345 30.0936 56.915 31.0117L63.0234 42.6846H17.1123Z" fill="url(#paint8_linear_2670_1408)" stroke="url(#paint9_linear_2670_1408)" stroke-width="0.506388"/>
<path d="M152.049 15V3.90105H153.143V15H152.049ZM172.95 15V5.96452L168.932 12.9834H168.245L164.212 5.96452V15H163.117V3.90105H164.243L168.573 11.4984L172.934 3.90105H174.044V15H172.95ZM191.474 14.0308V15H184.017V3.90105H191.333V4.87025H185.111V8.87213H190.536V9.79444H185.111V14.0308H191.474ZM200.734 15V3.90105H205.423C205.903 3.90105 206.341 4.00005 206.737 4.19806C207.133 4.39607 207.476 4.66703 207.768 5.01094C208.071 5.34443 208.3 5.71961 208.456 6.13647C208.623 6.54291 208.706 6.95977 208.706 7.38706C208.706 7.91856 208.602 8.41879 208.394 8.88776C208.196 9.35673 207.909 9.75275 207.534 10.0758C207.169 10.3989 206.737 10.6125 206.236 10.7167L208.956 15H207.721L205.111 10.9043H201.828V15H200.734ZM201.828 9.93513H205.455C205.892 9.93513 206.273 9.81528 206.596 9.57558C206.919 9.33589 207.169 9.02324 207.346 8.63764C207.523 8.24162 207.612 7.82476 207.612 7.38706C207.612 6.93893 207.508 6.52728 207.299 6.1521C207.101 5.76651 206.83 5.45907 206.486 5.2298C206.153 4.9901 205.778 4.87025 205.361 4.87025H201.828V9.93513ZM224.625 5.98015C224.469 5.80298 224.286 5.64666 224.078 5.51118C223.869 5.36528 223.635 5.24022 223.374 5.136C223.114 5.03179 222.832 4.94841 222.53 4.88588C222.238 4.82336 221.926 4.79209 221.592 4.79209C220.623 4.79209 219.909 4.97968 219.451 5.35485C219.003 5.71961 218.778 6.21984 218.778 6.85556C218.778 7.29326 218.883 7.63717 219.091 7.88729C219.31 8.13741 219.649 8.34063 220.107 8.49695C220.566 8.65328 221.149 8.81481 221.858 8.98155C222.65 9.1483 223.333 9.34631 223.906 9.57558C224.479 9.80486 224.922 10.1175 225.235 10.5135C225.547 10.8991 225.704 11.4254 225.704 12.0924C225.704 12.603 225.605 13.046 225.407 13.4211C225.209 13.7963 224.932 14.109 224.578 14.3591C224.224 14.6092 223.802 14.7968 223.312 14.9218C222.822 15.0365 222.285 15.0938 221.702 15.0938C221.129 15.0938 220.576 15.0365 220.045 14.9218C219.524 14.7968 219.029 14.6196 218.56 14.3903C218.091 14.1506 217.653 13.8484 217.246 13.4837L217.794 12.5926C217.992 12.8011 218.226 12.9991 218.497 13.1867C218.778 13.3638 219.086 13.5254 219.419 13.6713C219.763 13.8172 220.128 13.9318 220.514 14.0152C220.91 14.0881 221.316 14.1246 221.733 14.1246C222.619 14.1246 223.307 13.9631 223.796 13.64C224.297 13.3169 224.547 12.8375 224.547 12.2018C224.547 11.7433 224.422 11.3785 224.172 11.1076C223.921 10.8262 223.546 10.5969 223.046 10.4197C222.546 10.2426 221.931 10.0706 221.201 9.90386C220.43 9.7267 219.779 9.52869 219.247 9.30983C218.716 9.09098 218.315 8.80439 218.044 8.45005C217.783 8.0853 217.653 7.60591 217.653 7.01188C217.653 6.32406 217.82 5.74566 218.153 5.27669C218.497 4.7973 218.966 4.43776 219.56 4.19806C220.154 3.94794 220.837 3.82289 221.608 3.82289C222.098 3.82289 222.551 3.87499 222.968 3.97921C223.395 4.073 223.786 4.21369 224.14 4.40128C224.505 4.58887 224.844 4.82336 225.156 5.10474L224.625 5.98015ZM238.064 3.90105H238.987L243.598 15H242.442L241.003 11.5296H236.017L234.594 15H233.422L238.064 3.90105ZM240.753 10.6698L238.518 5.1829L236.251 10.6698H240.753ZM239.471 2.10333C239.159 2.10333 238.893 2.05122 238.674 1.94701C238.455 1.84279 238.257 1.73858 238.08 1.63436C237.903 1.53014 237.7 1.47804 237.47 1.47804C237.241 1.47804 237.069 1.53536 236.955 1.64999C236.85 1.75421 236.777 1.86885 236.736 1.9939C236.704 2.11896 236.689 2.19712 236.689 2.22839H236.032C236.032 2.17628 236.048 2.07207 236.079 1.91574C236.121 1.75942 236.194 1.59788 236.298 1.43114C236.402 1.25397 236.543 1.10286 236.72 0.977803C236.908 0.842323 237.153 0.774583 237.455 0.774583C237.747 0.774583 237.992 0.831901 238.19 0.946538C238.398 1.05075 238.596 1.16018 238.784 1.27482C238.982 1.37903 239.206 1.43114 239.456 1.43114C239.727 1.43114 239.925 1.37382 240.05 1.25918C240.175 1.13413 240.253 1.00907 240.284 0.884009C240.326 0.75895 240.347 0.686 240.347 0.665156H241.003C241.003 0.717264 240.983 0.82148 240.941 0.977803C240.899 1.1237 240.821 1.28524 240.706 1.4624C240.602 1.63957 240.446 1.79068 240.237 1.91574C240.039 2.0408 239.784 2.10333 239.471 2.10333ZM256.439 15.0782C255.657 15.0782 254.949 14.9218 254.313 14.6092C253.677 14.2965 253.13 13.8745 252.672 13.343C252.213 12.8011 251.859 12.1966 251.609 11.5296C251.358 10.8522 251.233 10.1592 251.233 9.45052C251.233 8.71059 251.364 8.00714 251.624 7.34016C251.885 6.66276 252.249 6.06352 252.718 5.54244C253.198 5.01094 253.755 4.59408 254.391 4.29186C255.027 3.97921 255.715 3.82289 256.455 3.82289C257.236 3.82289 257.945 3.98442 258.581 4.30749C259.216 4.63056 259.758 5.06305 260.206 5.60497C260.665 6.14689 261.019 6.75134 261.269 7.41832C261.519 8.0853 261.644 8.76791 261.644 9.46616C261.644 10.2061 261.514 10.9148 261.254 11.5922C260.993 12.2591 260.628 12.8584 260.159 13.3899C259.69 13.9109 259.138 14.3226 258.502 14.6248C257.867 14.927 257.179 15.0782 256.439 15.0782ZM252.328 9.45052C252.328 10.055 252.427 10.6386 252.625 11.2013C252.823 11.7537 253.104 12.2487 253.469 12.6864C253.834 13.1137 254.266 13.4576 254.766 13.7181C255.277 13.9683 255.834 14.0933 256.439 14.0933C257.075 14.0933 257.643 13.9631 258.143 13.7025C258.654 13.4316 259.086 13.0772 259.44 12.6395C259.805 12.1914 260.081 11.6912 260.269 11.1388C260.456 10.5865 260.55 10.0237 260.55 9.45052C260.55 8.84607 260.451 8.26768 260.253 7.71534C260.055 7.16299 259.769 6.66797 259.393 6.23026C259.029 5.79256 258.596 5.44865 258.096 5.19853C257.596 4.94841 257.043 4.82336 256.439 4.82336C255.814 4.82336 255.246 4.95362 254.735 5.21416C254.235 5.4747 253.802 5.82904 253.438 6.27716C253.083 6.71487 252.807 7.20989 252.609 7.76223C252.421 8.31457 252.328 8.87734 252.328 9.45052Z" fill="white"/>
<path d="M102.93 42.5506L103.522 41.6441H111.641L111.917 42.5506H102.93ZM122.205 54.7301C122.336 54.7301 122.402 54.809 122.402 54.9666C122.402 55.1243 122.336 55.2031 122.205 55.2031C121.443 55.2031 120.654 55.1768 119.84 55.1243C119.051 55.0717 118.276 55.0455 117.514 55.0455C116.673 55.0455 115.938 55.0717 115.307 55.1243C114.703 55.1768 114.019 55.2031 113.257 55.2031C113.152 55.2031 113.1 55.1243 113.1 54.9666C113.1 54.809 113.152 54.7301 113.257 54.7301C114.545 54.7301 115.333 54.5331 115.622 54.1389C115.911 53.7185 115.767 52.9039 115.189 51.6951L106.714 34.0763L107.976 32.1843L100.29 50.0002C99.6063 51.6031 99.5669 52.7988 100.171 53.5871C100.776 54.3491 101.906 54.7301 103.561 54.7301C103.692 54.7301 103.758 54.809 103.758 54.9666C103.758 55.1243 103.692 55.2031 103.561 55.2031C102.773 55.2031 102.05 55.1768 101.393 55.1243C100.736 55.0717 99.9085 55.0455 98.91 55.0455C97.9377 55.0455 97.1494 55.0717 96.545 55.1243C95.9669 55.1768 95.2574 55.2031 94.4166 55.2031C94.3114 55.2031 94.2589 55.1243 94.2589 54.9666C94.2589 54.809 94.3114 54.7301 94.4166 54.7301C95.126 54.7301 95.7436 54.5987 96.2691 54.336C96.7946 54.0469 97.2939 53.5345 97.7669 52.7988C98.2662 52.063 98.8048 51.0119 99.3829 49.6455L107.779 30.2923C107.805 30.2135 107.897 30.1741 108.054 30.1741C108.212 30.1478 108.304 30.1872 108.33 30.2923L117.79 49.8032C118.421 51.0907 118.959 52.1024 119.406 52.8382C119.879 53.5477 120.339 54.0469 120.786 54.336C121.232 54.5987 121.705 54.7301 122.205 54.7301ZM133.061 55.2031C133.008 55.2031 132.982 55.1243 132.982 54.9666C132.982 54.809 133.008 54.7301 133.061 54.7301C134.033 54.7301 134.743 54.6644 135.189 54.5331C135.662 54.4017 135.978 54.1389 136.135 53.7447C136.319 53.3506 136.411 52.7725 136.411 52.0104V33.7609C136.411 32.9989 136.332 32.4339 136.175 32.066C136.017 31.6719 135.702 31.4091 135.229 31.2777C134.782 31.1201 134.112 31.0412 133.219 31.0412C133.14 31.0412 133.1 30.9624 133.1 30.8047C133.1 30.6471 133.14 30.5682 133.219 30.5682H149.3C149.563 30.5682 149.694 30.6865 149.694 30.923L149.773 35.8894C149.773 35.9682 149.694 36.0208 149.537 36.047C149.405 36.047 149.327 36.0076 149.3 35.9288C149.116 34.4835 148.604 33.393 147.763 32.6573C146.922 31.8952 145.819 31.5142 144.452 31.5142H142.442C141.286 31.5142 140.511 31.6719 140.116 31.9872C139.722 32.3025 139.525 32.9069 139.525 33.8003V51.8528C139.525 52.6411 139.63 53.2455 139.841 53.6659C140.051 54.0601 140.484 54.336 141.141 54.4936C141.824 54.6513 142.823 54.7301 144.137 54.7301C144.189 54.7301 144.216 54.809 144.216 54.9666C144.216 55.1243 144.189 55.2031 144.137 55.2031C143.27 55.2031 142.324 55.19 141.299 55.1637C140.3 55.1374 139.17 55.1243 137.909 55.1243C137.016 55.1243 136.149 55.1374 135.308 55.1637C134.467 55.19 133.718 55.2031 133.061 55.2031ZM147.33 46.6105C147.33 45.4806 146.988 44.6528 146.305 44.1273C145.621 43.5755 144.531 43.2995 143.033 43.2995H138.027V42.393H143.151C144.597 42.393 145.648 42.1565 146.305 41.6835C146.962 41.2105 147.29 40.501 147.29 39.555C147.29 39.5025 147.369 39.4762 147.527 39.4762C147.684 39.4762 147.763 39.5025 147.763 39.555C147.763 40.3696 147.75 41.0003 147.724 41.447C147.724 41.8937 147.724 42.3667 147.724 42.866C147.724 43.4704 147.737 44.0747 147.763 44.6791C147.789 45.2835 147.802 45.9273 147.802 46.6105C147.802 46.663 147.724 46.6893 147.566 46.6893C147.408 46.6893 147.33 46.663 147.33 46.6105ZM166.158 55.6761C164.266 55.6761 162.545 55.3476 160.995 54.6907C159.471 54.0075 158.157 53.0747 157.053 51.8922C155.976 50.7097 155.135 49.3564 154.531 47.8324C153.952 46.282 153.663 44.6397 153.663 42.9054C153.663 40.7769 154.071 38.9113 154.885 37.3083C155.726 35.7054 156.83 34.3784 158.196 33.3274C159.563 32.25 161.06 31.4485 162.69 30.923C164.319 30.3974 165.935 30.1347 167.538 30.1347C169.482 30.1347 171.217 30.4894 172.741 31.1989C174.291 31.8821 175.605 32.8149 176.682 33.9974C177.76 35.1799 178.574 36.52 179.126 38.0178C179.704 39.5156 179.993 41.0528 179.993 42.6295C179.993 44.4689 179.625 46.1769 178.89 47.7535C178.154 49.3302 177.142 50.7097 175.855 51.8922C174.593 53.0747 173.122 54.0075 171.44 54.6907C169.785 55.3476 168.024 55.6761 166.158 55.6761ZM167.538 54.809C169.193 54.809 170.691 54.3885 172.031 53.5477C173.398 52.6805 174.462 51.4323 175.224 49.8032C176.012 48.1477 176.406 46.1243 176.406 43.7331C176.406 41.2893 175.973 39.1215 175.106 37.2295C174.265 35.3113 173.056 33.8135 171.479 32.7361C169.929 31.6325 168.076 31.0806 165.922 31.0806C163.163 31.0806 161.021 32.0135 159.497 33.8792C157.999 35.7449 157.25 38.2937 157.25 41.5258C157.25 43.3915 157.487 45.139 157.96 46.7681C158.459 48.3711 159.169 49.7769 160.088 50.9856C161.008 52.1944 162.098 53.1404 163.36 53.8236C164.621 54.4805 166.014 54.809 167.538 54.809ZM163.123 28.4398C163.018 28.4923 162.939 28.4529 162.887 28.3215C162.834 28.1639 162.847 28.0719 162.926 28.0456C164.082 27.415 165.12 26.7712 166.04 26.1143C166.986 25.431 167.932 24.7873 168.878 24.1829C168.983 24.104 169.22 24.1172 169.587 24.2223C169.982 24.3274 170.389 24.4719 170.809 24.6559C171.23 24.8135 171.558 24.9712 171.795 25.1289C172.031 25.2865 172.057 25.3785 171.874 25.4048C170.113 25.8252 168.549 26.2851 167.183 26.7843C165.817 27.2836 164.463 27.8354 163.123 28.4398ZM203.431 55.2031C203.01 55.2031 202.314 54.6776 201.342 53.6265C200.396 52.5754 199.253 51.0776 197.913 49.1331C196.572 47.1886 195.062 44.8762 193.38 42.1959L196.021 41.3288C198.228 44.6397 200.094 47.2805 201.618 49.2513C203.168 51.1959 204.534 52.6017 205.717 53.4688C206.899 54.3097 208.029 54.7301 209.107 54.7301C209.186 54.7301 209.225 54.809 209.225 54.9666C209.225 55.1243 209.186 55.2031 209.107 55.2031C207.635 55.2031 206.426 55.2031 205.48 55.2031C204.561 55.2031 203.878 55.2031 203.431 55.2031ZM193.262 30.45C195.521 30.45 197.243 30.8967 198.425 31.7901C199.634 32.6573 200.238 33.866 200.238 35.4164C200.238 36.3886 200.002 37.3215 199.529 38.2149C199.082 39.1083 198.464 39.8967 197.676 40.5799C196.914 41.2631 196.021 41.8017 194.996 42.1959C193.997 42.5901 192.959 42.7871 191.882 42.7871C191.567 42.7871 191.238 42.7871 190.897 42.7871C190.555 42.7609 190.24 42.7346 189.951 42.7083V52.0104C189.951 52.7725 190.016 53.3506 190.148 53.7447C190.305 54.1389 190.608 54.4017 191.054 54.5331C191.527 54.6644 192.224 54.7301 193.143 54.7301C193.222 54.7301 193.262 54.809 193.262 54.9666C193.262 55.1243 193.222 55.2031 193.143 55.2031C192.486 55.2031 191.764 55.19 190.975 55.1637C190.187 55.1374 189.32 55.1243 188.374 55.1243C187.481 55.1243 186.627 55.1374 185.812 55.1637C184.997 55.19 184.262 55.2031 183.605 55.2031C183.526 55.2031 183.486 55.1243 183.486 54.9666C183.486 54.809 183.526 54.7301 183.605 54.7301C184.498 54.7301 185.168 54.6644 185.615 54.5331C186.088 54.4017 186.403 54.1389 186.561 53.7447C186.745 53.3506 186.837 52.7725 186.837 52.0104V33.7609C186.837 32.9989 186.758 32.4339 186.6 32.066C186.443 31.6719 186.14 31.4091 185.694 31.2777C185.247 31.1201 184.564 31.0412 183.644 31.0412C183.592 31.0412 183.565 30.9624 183.565 30.8047C183.565 30.6471 183.592 30.5682 183.644 30.5682C184.301 30.5682 185.024 30.5945 185.812 30.6471C186.627 30.6734 187.481 30.6865 188.374 30.6865C189.083 30.6865 189.898 30.6471 190.818 30.5682C191.737 30.4894 192.552 30.45 193.262 30.45ZM196.967 36.8354C196.967 35.3376 196.77 34.1814 196.375 33.3668C195.981 32.5259 195.443 31.9478 194.759 31.6325C194.102 31.2909 193.354 31.1201 192.513 31.1201C191.882 31.1201 191.383 31.1858 191.015 31.3171C190.647 31.4223 190.371 31.6719 190.187 32.066C190.029 32.4602 189.951 33.0514 189.951 33.8398V41.6835C190.319 41.7098 190.713 41.7492 191.133 41.8017C191.58 41.828 191.961 41.8412 192.276 41.8412C193.958 41.8412 195.154 41.4733 195.863 40.7375C196.599 39.9755 196.967 38.6748 196.967 36.8354ZM213.429 50.7097L213.823 31.4748L214.809 31.5536L214.415 50.7097C214.388 52.0761 214.625 53.0878 215.124 53.7447C215.65 54.4017 216.517 54.7301 217.726 54.7301C217.804 54.7301 217.844 54.809 217.844 54.9666C217.844 55.1243 217.804 55.2031 217.726 55.2031C217.147 55.2031 216.556 55.19 215.952 55.1637C215.347 55.1374 214.664 55.1243 213.902 55.1243C213.193 55.1243 212.523 55.1374 211.892 55.1637C211.261 55.19 210.67 55.2031 210.118 55.2031C210.066 55.2031 210.039 55.1243 210.039 54.9666C210.039 54.809 210.066 54.7301 210.118 54.7301C211.222 54.7301 212.037 54.4017 212.562 53.7447C213.114 53.0878 213.403 52.0761 213.429 50.7097ZM241.02 54.7301C241.073 54.7301 241.099 54.809 241.099 54.9666C241.099 55.1243 241.073 55.2031 241.02 55.2031C240.363 55.2031 239.628 55.19 238.813 55.1637C237.998 55.1374 237.131 55.1243 236.212 55.1243C235.344 55.1243 234.53 55.1374 233.768 55.1637C233.006 55.19 232.323 55.2031 231.718 55.2031C231.639 55.2031 231.6 55.1243 231.6 54.9666C231.6 54.809 231.639 54.7301 231.718 54.7301C233.006 54.7301 233.833 54.5593 234.201 54.2177C234.569 53.8761 234.714 53.1404 234.635 52.0104L233.847 33.4456L235.384 31.2383L225.175 54.9272C225.149 55.0323 225.044 55.0849 224.86 55.0849C224.702 55.0849 224.597 55.0323 224.544 54.9272L214.257 33.8398C213.337 31.9741 212.05 31.0412 210.394 31.0412C210.342 31.0412 210.315 30.9624 210.315 30.8047C210.315 30.6471 210.342 30.5682 210.394 30.5682C210.867 30.5682 211.353 30.5814 211.853 30.6077C212.378 30.6339 212.825 30.6471 213.193 30.6471C213.692 30.6471 214.139 30.6339 214.533 30.6077C214.953 30.5814 215.269 30.5682 215.479 30.5682C215.847 30.5682 216.136 30.6996 216.346 30.9624C216.556 31.1989 216.872 31.7507 217.292 32.6179L226.239 50.7886L224.781 53.3112L234.28 31.5536C234.412 31.2383 234.569 31.0018 234.753 30.8442C234.963 30.6602 235.2 30.5682 235.463 30.5682C235.647 30.5682 235.87 30.5814 236.133 30.6077C236.422 30.6339 236.75 30.6471 237.118 30.6471C237.854 30.6471 238.471 30.6339 238.971 30.6077C239.47 30.5814 239.982 30.5682 240.508 30.5682C240.56 30.5682 240.587 30.6471 240.587 30.8047C240.587 30.9624 240.56 31.0412 240.508 31.0412C239.247 31.0412 238.327 31.2515 237.749 31.6719C237.171 32.066 236.895 32.8018 236.921 33.8792L237.749 52.0104C237.801 52.7725 237.906 53.3506 238.064 53.7447C238.222 54.1389 238.524 54.4017 238.971 54.5331C239.417 54.6644 240.101 54.7301 241.02 54.7301ZM264.465 35.1011C264.465 33.7872 264.162 32.7887 263.558 32.1055C262.98 31.396 262.113 31.0412 260.957 31.0412C260.878 31.0412 260.838 30.9624 260.838 30.8047C260.838 30.6471 260.878 30.5682 260.957 30.5682C261.561 30.5682 262.192 30.5945 262.849 30.6471C263.506 30.6734 264.215 30.6865 264.977 30.6865C265.634 30.6865 266.278 30.6734 266.908 30.6471C267.565 30.5945 268.17 30.5682 268.722 30.5682C268.774 30.5682 268.8 30.6471 268.8 30.8047C268.8 30.9624 268.774 31.0412 268.722 31.0412C267.67 31.0412 266.869 31.396 266.317 32.1055C265.792 32.7887 265.529 33.7872 265.529 35.1011V46.2557C265.529 48.2265 265.135 49.9214 264.346 51.3404C263.558 52.7593 262.454 53.8498 261.035 54.6119C259.617 55.3476 257.961 55.7155 256.069 55.7155C254.125 55.7155 252.417 55.3476 250.945 54.6119C249.474 53.8498 248.33 52.7725 247.516 51.3798C246.701 49.9871 246.294 48.3316 246.294 46.4134V33.7609C246.294 32.9989 246.215 32.4339 246.057 32.066C245.9 31.6719 245.584 31.4091 245.112 31.2777C244.665 31.1201 243.995 31.0412 243.101 31.0412C243.022 31.0412 242.983 30.9624 242.983 30.8047C242.983 30.6471 243.022 30.5682 243.101 30.5682C243.758 30.5682 244.481 30.5945 245.269 30.6471C246.057 30.6734 246.911 30.6865 247.831 30.6865C248.777 30.6865 249.644 30.6734 250.433 30.6471C251.247 30.5945 251.957 30.5682 252.561 30.5682C252.64 30.5682 252.679 30.6471 252.679 30.8047C252.679 30.9624 252.64 31.0412 252.561 31.0412C251.668 31.0412 250.984 31.1201 250.511 31.2777C250.065 31.4354 249.763 31.7113 249.605 32.1055C249.474 32.4996 249.408 33.0777 249.408 33.8398V45.0338C249.408 48.1871 250.091 50.5521 251.457 52.1287C252.824 53.679 254.716 54.4542 257.133 54.4542C259.446 54.4542 261.246 53.7447 262.533 52.3258C263.821 50.8805 264.465 48.8703 264.465 46.2952V35.1011ZM277.164 33.8003V51.8528C277.164 52.536 277.23 53.0615 277.361 53.4294C277.519 53.771 277.795 54.0075 278.189 54.1389C278.61 54.244 279.227 54.2966 280.042 54.2966H283.392C285.1 54.2966 286.493 53.7973 287.57 52.7988C288.647 51.8002 289.357 50.4732 289.699 48.8178C289.699 48.7389 289.764 48.7127 289.896 48.7389C290.053 48.7389 290.132 48.7783 290.132 48.8572C290.053 49.6192 289.974 50.5389 289.896 51.6163C289.817 52.6937 289.777 53.6922 289.777 54.6119C289.777 55.006 289.58 55.2031 289.186 55.2031H270.818C270.766 55.2031 270.739 55.1243 270.739 54.9666C270.739 54.809 270.766 54.7301 270.818 54.7301C271.738 54.7301 272.421 54.6644 272.868 54.5331C273.341 54.4017 273.656 54.1389 273.814 53.7447C273.972 53.3506 274.05 52.7725 274.05 52.0104V33.7609C274.05 32.9989 273.972 32.4339 273.814 32.066C273.656 31.6719 273.341 31.4091 272.868 31.2777C272.421 31.1201 271.738 31.0412 270.818 31.0412C270.766 31.0412 270.739 30.9624 270.739 30.8047C270.739 30.6471 270.766 30.5682 270.818 30.5682C271.449 30.5682 272.172 30.5945 272.986 30.6471C273.827 30.6734 274.694 30.6865 275.588 30.6865C276.534 30.6865 277.401 30.6734 278.189 30.6471C279.004 30.5945 279.726 30.5682 280.357 30.5682C280.41 30.5682 280.436 30.6471 280.436 30.8047C280.436 30.9624 280.41 31.0412 280.357 31.0412C279.437 31.0412 278.754 31.1201 278.307 31.2777C277.861 31.4091 277.558 31.6719 277.401 32.066C277.243 32.4602 277.164 33.0383 277.164 33.8003ZM299.163 42.5506L299.754 41.6441H307.873L308.149 42.5506H299.163ZM318.437 54.7301C318.568 54.7301 318.634 54.809 318.634 54.9666C318.634 55.1243 318.568 55.2031 318.437 55.2031C317.675 55.2031 316.887 55.1768 316.072 55.1243C315.284 55.0717 314.508 55.0455 313.746 55.0455C312.906 55.0455 312.17 55.0717 311.539 55.1243C310.935 55.1768 310.252 55.2031 309.49 55.2031C309.384 55.2031 309.332 55.1243 309.332 54.9666C309.332 54.809 309.384 54.7301 309.49 54.7301C310.777 54.7301 311.565 54.5331 311.854 54.1389C312.144 53.7185 311.999 52.9039 311.421 51.6951L302.947 34.0763L304.208 32.1843L296.522 50.0002C295.839 51.6031 295.799 52.7988 296.403 53.5871C297.008 54.3491 298.138 54.7301 299.793 54.7301C299.925 54.7301 299.99 54.809 299.99 54.9666C299.99 55.1243 299.925 55.2031 299.793 55.2031C299.005 55.2031 298.282 55.1768 297.625 55.1243C296.968 55.0717 296.141 55.0455 295.142 55.0455C294.17 55.0455 293.382 55.0717 292.777 55.1243C292.199 55.1768 291.49 55.2031 290.649 55.2031C290.544 55.2031 290.491 55.1243 290.491 54.9666C290.491 54.809 290.544 54.7301 290.649 54.7301C291.358 54.7301 291.976 54.5987 292.501 54.336C293.027 54.0469 293.526 53.5345 293.999 52.7988C294.498 52.063 295.037 51.0119 295.615 49.6455L304.011 30.2923C304.037 30.2135 304.129 30.1741 304.287 30.1741C304.444 30.1478 304.536 30.1872 304.563 30.2923L314.022 49.8032C314.653 51.0907 315.192 52.1024 315.638 52.8382C316.111 53.5477 316.571 54.0469 317.018 54.336C317.465 54.5987 317.938 54.7301 318.437 54.7301Z" fill="#C21718"/>
<path d="M93.134 76.4375V66.6853H96.4442C97.479 66.6853 98.3397 66.905 99.0265 67.3446C99.7224 67.775 100.244 68.361 100.592 69.1027C100.94 69.8353 101.114 70.6503 101.114 71.5477C101.114 72.5366 100.922 73.3974 100.537 74.1299C100.162 74.8625 99.6217 75.4302 98.9166 75.8331C98.2207 76.236 97.3965 76.4375 96.4442 76.4375H93.134ZM100.153 71.5477C100.153 70.7693 100.006 70.078 99.7133 69.4736C99.4294 68.8692 99.0128 68.3976 98.4633 68.0588C97.9139 67.7109 97.2409 67.5369 96.4442 67.5369H94.0954V75.5859H96.4442C97.25 75.5859 97.9276 75.4073 98.4771 75.0502C99.0265 74.6931 99.4431 74.2123 99.727 73.608C100.011 72.9945 100.153 72.3077 100.153 71.5477ZM109.903 76.5062C109.216 76.5062 108.593 76.3688 108.035 76.0941C107.476 75.8194 106.996 75.4485 106.593 74.9815C106.19 74.5054 105.878 73.9743 105.659 73.3882C105.439 72.793 105.329 72.1841 105.329 71.5614C105.329 70.9112 105.443 70.2931 105.672 69.7071C105.901 69.1119 106.222 68.5854 106.634 68.1275C107.055 67.6605 107.545 67.2942 108.104 67.0287C108.662 66.754 109.266 66.6166 109.917 66.6166C110.603 66.6166 111.226 66.7585 111.785 67.0424C112.343 67.3263 112.819 67.7063 113.213 68.1825C113.616 68.6586 113.927 69.1897 114.147 69.7758C114.367 70.3618 114.477 70.9616 114.477 71.5751C114.477 72.2253 114.362 72.848 114.133 73.4432C113.904 74.0292 113.584 74.5557 113.172 75.0227C112.76 75.4806 112.275 75.8423 111.716 76.1078C111.157 76.3734 110.553 76.5062 109.903 76.5062ZM106.29 71.5614C106.29 72.0925 106.377 72.6053 106.551 73.0998C106.725 73.5851 106.973 74.02 107.293 74.4046C107.614 74.7801 107.994 75.0823 108.433 75.3112C108.882 75.531 109.372 75.6408 109.903 75.6408C110.461 75.6408 110.961 75.5264 111.4 75.2975C111.849 75.0594 112.229 74.748 112.54 74.3634C112.861 73.9697 113.103 73.5301 113.268 73.0448C113.433 72.5595 113.515 72.065 113.515 71.5614C113.515 71.0303 113.428 70.5221 113.254 70.0367C113.08 69.5514 112.829 69.1165 112.499 68.7319C112.178 68.3473 111.798 68.0451 111.359 67.8253C110.919 67.6056 110.434 67.4957 109.903 67.4957C109.353 67.4957 108.854 67.6101 108.406 67.8391C107.966 68.068 107.586 68.3793 107.266 68.7731C106.954 69.1577 106.712 69.5926 106.538 70.078C106.373 70.5633 106.29 71.0578 106.29 71.5614ZM125.779 76.4375V66.6853H129.955C130.385 66.6853 130.779 66.7769 131.136 66.96C131.493 67.134 131.805 67.3721 132.07 67.6742C132.336 67.9673 132.542 68.3015 132.688 68.6769C132.835 69.0432 132.908 69.4186 132.908 69.8032C132.908 70.2519 132.821 70.6777 132.647 71.0806C132.482 71.4836 132.244 71.8269 131.933 72.1108C131.631 72.3947 131.273 72.5916 130.861 72.7014L133.224 76.4375H131.823L129.598 72.9349H127.015V76.4375H125.779ZM127.015 71.8361H129.969C130.307 71.8361 130.6 71.7445 130.848 71.5614C131.104 71.3691 131.301 71.1173 131.438 70.8059C131.585 70.4946 131.658 70.1604 131.658 69.8032C131.658 69.437 131.576 69.1027 131.411 68.8006C131.246 68.4892 131.031 68.242 130.765 68.0588C130.5 67.8757 130.207 67.7841 129.886 67.7841H127.015V71.8361ZM144.449 75.3387V76.4375H137.828V66.6853H144.325V67.7841H139.065V70.9433H143.638V71.9735H139.065V75.3387H144.449ZM148.347 71.4927C148.347 70.8975 148.448 70.316 148.649 69.7483C148.86 69.1714 149.162 68.6495 149.556 68.1825C149.959 67.7063 150.449 67.3308 151.025 67.0561C151.602 66.7723 152.257 66.6303 152.99 66.6303C153.86 66.6303 154.606 66.8318 155.228 67.2347C155.851 67.6285 156.314 68.1367 156.616 68.7593L155.641 69.3912C155.448 68.9791 155.201 68.654 154.899 68.416C154.606 68.1687 154.285 67.9947 153.937 67.894C153.599 67.7933 153.264 67.7429 152.935 67.7429C152.394 67.7429 151.914 67.8528 151.492 68.0726C151.08 68.2923 150.732 68.5854 150.449 68.9516C150.165 69.3179 149.949 69.73 149.803 70.1878C149.666 70.6365 149.597 71.0898 149.597 71.5477C149.597 72.0513 149.679 72.5366 149.844 73.0036C150.018 73.4706 150.256 73.8827 150.558 74.2398C150.861 74.5969 151.218 74.8808 151.63 75.0914C152.042 75.302 152.491 75.4073 152.976 75.4073C153.315 75.4073 153.663 75.3478 154.02 75.2288C154.377 75.1097 154.711 74.9266 155.022 74.6794C155.334 74.423 155.581 74.0933 155.764 73.6904L156.794 74.2536C156.593 74.7389 156.282 75.1509 155.86 75.4897C155.439 75.8286 154.968 76.085 154.446 76.2589C153.933 76.4329 153.425 76.5199 152.921 76.5199C152.252 76.5199 151.639 76.378 151.08 76.0941C150.522 75.8011 150.036 75.4165 149.624 74.9403C149.221 74.455 148.906 73.9147 148.677 73.3195C148.457 72.7152 148.347 72.1062 148.347 71.4927ZM165.388 76.5062C164.609 76.5062 163.955 76.3734 163.424 76.1078C162.893 75.8331 162.467 75.4669 162.146 75.009C161.826 74.542 161.592 74.0155 161.446 73.4294C161.299 72.8434 161.226 72.239 161.226 71.6163V66.6853H162.462V71.6163C162.462 72.0925 162.508 72.5595 162.6 73.0174C162.7 73.466 162.86 73.869 163.08 74.2261C163.3 74.5832 163.598 74.8671 163.973 75.0777C164.349 75.2883 164.816 75.3936 165.374 75.3936C165.942 75.3936 166.413 75.2883 166.789 75.0777C167.164 74.8579 167.462 74.5695 167.682 74.2123C167.901 73.8461 168.057 73.4386 168.149 72.9899C168.249 72.5412 168.3 72.0833 168.3 71.6163V66.6853H169.536V71.6163C169.536 72.2756 169.458 72.9029 169.302 73.4981C169.156 74.0841 168.918 74.6015 168.588 75.0502C168.259 75.4989 167.828 75.856 167.297 76.1216C166.775 76.378 166.139 76.5062 165.388 76.5062ZM174.754 76.4375V66.6853H178.929C179.36 66.6853 179.754 66.7769 180.111 66.96C180.468 67.134 180.779 67.3721 181.045 67.6742C181.31 67.9673 181.516 68.3015 181.663 68.6769C181.809 69.0432 181.883 69.4186 181.883 69.8032C181.883 70.2519 181.796 70.6777 181.622 71.0806C181.457 71.4836 181.219 71.8269 180.907 72.1108C180.605 72.3947 180.248 72.5916 179.836 72.7014L182.198 76.4375H180.797L178.572 72.9349H175.99V76.4375H174.754ZM175.99 71.8361H178.943C179.282 71.8361 179.575 71.7445 179.822 71.5614C180.079 71.3691 180.276 71.1173 180.413 70.8059C180.559 70.4946 180.633 70.1604 180.633 69.8032C180.633 69.437 180.55 69.1027 180.385 68.8006C180.221 68.4892 180.005 68.242 179.74 68.0588C179.474 67.8757 179.181 67.7841 178.861 67.7841H175.99V71.8361ZM192.531 68.7319C192.421 68.6037 192.274 68.4801 192.091 68.361C191.908 68.242 191.702 68.1367 191.473 68.0451C191.244 67.9444 190.992 67.8665 190.718 67.8116C190.452 67.7475 190.173 67.7154 189.88 67.7154C189.129 67.7154 188.575 67.8574 188.218 68.1412C187.861 68.4251 187.682 68.8143 187.682 69.3088C187.682 69.6567 187.774 69.9314 187.957 70.1329C188.14 70.3344 188.419 70.4992 188.795 70.6274C189.179 70.7556 189.665 70.8883 190.251 71.0257C190.928 71.1722 191.514 71.3508 192.009 71.5614C192.503 71.772 192.883 72.0559 193.149 72.413C193.414 72.761 193.547 73.228 193.547 73.814C193.547 74.281 193.456 74.6885 193.272 75.0365C193.098 75.3753 192.851 75.6592 192.531 75.8881C192.21 76.1078 191.835 76.2727 191.404 76.3826C190.974 76.4833 190.507 76.5336 190.003 76.5336C189.509 76.5336 189.024 76.4833 188.547 76.3826C188.08 76.2727 187.636 76.117 187.215 75.9156C186.794 75.7141 186.4 75.4623 186.034 75.1601L186.624 74.1162C186.771 74.2719 186.959 74.4275 187.188 74.5832C187.426 74.7297 187.691 74.8671 187.984 74.9953C188.286 75.1235 188.612 75.2288 188.959 75.3112C189.307 75.3844 189.665 75.4211 190.031 75.4211C190.727 75.4211 191.267 75.2975 191.652 75.0502C192.036 74.7938 192.229 74.423 192.229 73.9376C192.229 73.5714 192.119 73.2783 191.899 73.0586C191.688 72.8388 191.372 72.6557 190.951 72.5091C190.53 72.3626 190.017 72.2161 189.413 72.0696C188.753 71.9048 188.199 71.7262 187.751 71.5339C187.302 71.3325 186.963 71.0715 186.734 70.751C186.515 70.4305 186.405 70.0139 186.405 69.5011C186.405 68.8784 186.556 68.3519 186.858 67.9215C187.16 67.4911 187.577 67.166 188.108 66.9463C188.639 66.7265 189.239 66.6166 189.907 66.6166C190.347 66.6166 190.754 66.6624 191.13 66.754C191.514 66.8455 191.871 66.9737 192.201 67.1386C192.531 67.3034 192.833 67.5003 193.108 67.7292L192.531 68.7319ZM202.151 76.5062C201.464 76.5062 200.841 76.3688 200.283 76.0941C199.724 75.8194 199.239 75.4485 198.827 74.9815C198.424 74.5054 198.112 73.9743 197.893 73.3882C197.673 72.793 197.563 72.1841 197.563 71.5614C197.563 70.9112 197.678 70.2931 197.906 69.7071C198.145 69.1119 198.47 68.5854 198.882 68.1275C199.303 67.6605 199.793 67.2942 200.351 67.0287C200.91 66.754 201.519 66.6166 202.178 66.6166C202.865 66.6166 203.488 66.7585 204.046 67.0424C204.605 67.3263 205.086 67.7063 205.488 68.1825C205.891 68.6586 206.203 69.1897 206.422 69.7758C206.642 70.3618 206.752 70.9616 206.752 71.5751C206.752 72.2253 206.638 72.848 206.409 73.4432C206.18 74.0292 205.855 74.5557 205.434 75.0227C205.021 75.4806 204.536 75.8423 203.978 76.1078C203.419 76.3734 202.81 76.5062 202.151 76.5062ZM198.813 71.5614C198.813 72.0559 198.891 72.5366 199.047 73.0036C199.211 73.4615 199.44 73.869 199.733 74.2261C200.026 74.5832 200.379 74.8671 200.791 75.0777C201.203 75.2883 201.661 75.3936 202.164 75.3936C202.686 75.3936 203.153 75.2837 203.565 75.0639C203.978 74.8442 204.326 74.5512 204.609 74.1849C204.902 73.8186 205.122 73.4065 205.269 72.9487C205.424 72.4908 205.502 72.0284 205.502 71.5614C205.502 71.0669 205.42 70.5907 205.255 70.1329C205.099 69.675 204.87 69.2676 204.568 68.9104C204.275 68.5442 203.923 68.2603 203.511 68.0588C203.108 67.8482 202.659 67.7429 202.164 67.7429C201.643 67.7429 201.176 67.8528 200.763 68.0726C200.351 68.2832 199.999 68.5716 199.706 68.9379C199.422 69.3042 199.202 69.7163 199.047 70.1741C198.891 70.6228 198.813 71.0852 198.813 71.5614ZM217.987 76.4375V66.6853H221.366C222.41 66.6853 223.28 66.905 223.976 67.3446C224.681 67.775 225.208 68.361 225.556 69.1027C225.904 69.8353 226.078 70.6503 226.078 71.5477C226.078 72.5366 225.885 73.3974 225.501 74.1299C225.116 74.8625 224.571 75.4302 223.866 75.8331C223.161 76.236 222.328 76.4375 221.366 76.4375H217.987ZM224.828 71.5477C224.828 70.8151 224.69 70.1649 224.416 69.5972C224.15 69.0295 223.761 68.5854 223.248 68.2649C222.735 67.9444 222.108 67.7841 221.366 67.7841H219.224V75.3387H221.366C222.117 75.3387 222.749 75.1738 223.262 74.8442C223.775 74.5054 224.164 74.0521 224.429 73.4844C224.695 72.9075 224.828 72.2619 224.828 71.5477ZM237.462 75.3387V76.4375H230.841V66.6853H237.338V67.7841H232.078V70.9433H236.652V71.9735H232.078V75.3387H237.462ZM248.676 76.4375V66.6853H252.851C253.282 66.6853 253.675 66.7769 254.032 66.96C254.39 67.134 254.701 67.3721 254.966 67.6742C255.232 67.9673 255.438 68.3015 255.585 68.6769C255.731 69.0432 255.804 69.4186 255.804 69.8032C255.804 70.2519 255.717 70.6777 255.543 71.0806C255.379 71.4836 255.14 71.8269 254.829 72.1108C254.527 72.3947 254.17 72.5916 253.758 72.7014L256.12 76.4375H254.719L252.494 72.9349H249.912V76.4375H248.676ZM249.912 71.8361H252.865C253.204 71.8361 253.497 71.7445 253.744 71.5614C254 71.3691 254.197 71.1173 254.335 70.8059C254.481 70.4946 254.554 70.1604 254.554 69.8032C254.554 69.437 254.472 69.1027 254.307 68.8006C254.142 68.4892 253.927 68.242 253.662 68.0588C253.396 67.8757 253.103 67.7841 252.783 67.7841H249.912V71.8361ZM267.345 75.3387V76.4375H260.725V66.6853H267.222V67.7841H261.961V70.9433H266.535V71.9735H261.961V75.3387H267.345ZM272.338 66.6853L275.566 74.8854L278.78 66.6853H280.085L276.129 76.4375H275.002L271.033 66.6853H272.338ZM284.421 76.4375V66.6853H285.657V76.4375H284.421ZM296.738 68.7319C296.628 68.6037 296.482 68.4801 296.299 68.361C296.116 68.242 295.91 68.1367 295.681 68.0451C295.452 67.9444 295.2 67.8665 294.925 67.8116C294.66 67.7475 294.38 67.7154 294.087 67.7154C293.336 67.7154 292.782 67.8574 292.425 68.1412C292.068 68.4251 291.89 68.8143 291.89 69.3088C291.89 69.6567 291.981 69.9314 292.164 70.1329C292.347 70.3344 292.627 70.4992 293.002 70.6274C293.387 70.7556 293.872 70.8883 294.458 71.0257C295.136 71.1722 295.722 71.3508 296.216 71.5614C296.711 71.772 297.091 72.0559 297.356 72.413C297.622 72.761 297.755 73.228 297.755 73.814C297.755 74.281 297.663 74.6885 297.48 75.0365C297.306 75.3753 297.059 75.6592 296.738 75.8881C296.418 76.1078 296.042 76.2727 295.612 76.3826C295.182 76.4833 294.715 76.5336 294.211 76.5336C293.716 76.5336 293.231 76.4833 292.755 76.3826C292.288 76.2727 291.844 76.117 291.423 75.9156C291.001 75.7141 290.608 75.4623 290.241 75.1601L290.832 74.1162C290.978 74.2719 291.166 74.4275 291.395 74.5832C291.633 74.7297 291.899 74.8671 292.192 74.9953C292.494 75.1235 292.819 75.2288 293.167 75.3112C293.515 75.3844 293.872 75.4211 294.238 75.4211C294.934 75.4211 295.475 75.2975 295.859 75.0502C296.244 74.7938 296.436 74.423 296.436 73.9376C296.436 73.5714 296.326 73.2783 296.106 73.0586C295.896 72.8388 295.58 72.6557 295.159 72.5091C294.737 72.3626 294.225 72.2161 293.62 72.0696C292.961 71.9048 292.407 71.7262 291.958 71.5339C291.51 71.3325 291.171 71.0715 290.942 70.751C290.722 70.4305 290.612 70.0139 290.612 69.5011C290.612 68.8784 290.763 68.3519 291.065 67.9215C291.368 67.4911 291.784 67.166 292.315 66.9463C292.847 66.7265 293.446 66.6166 294.115 66.6166C294.554 66.6166 294.962 66.6624 295.337 66.754C295.722 66.8455 296.079 66.9737 296.409 67.1386C296.738 67.3034 297.04 67.5003 297.315 67.7292L296.738 68.7319ZM309.435 67.7841H306.07V76.4375H304.834V67.7841H301.468V66.6853H309.435V67.7841ZM315.903 66.6853H316.947L320.93 76.4375H319.611L318.458 73.5805H314.364L313.224 76.4375H311.906L315.903 66.6853ZM318.183 72.619L316.425 68.1138L314.612 72.619H318.183Z" fill="white"/>
<defs>
<linearGradient id="paint0_linear_2670_1408" x1="31.1231" y1="27.4922" x2="31.1231" y2="1.66642" gradientUnits="userSpaceOnUse">
<stop offset="0.654412" stop-color="#D31C1B"/>
<stop offset="1" stop-color="#D31C1B" stop-opacity="0"/>
</linearGradient>
<linearGradient id="paint1_linear_2670_1408" x1="31.1231" y1="1.66642" x2="31.1231" y2="27.4922" gradientUnits="userSpaceOnUse">
<stop stop-color="#902234" stop-opacity="0.4"/>
<stop offset="0.661765" stop-color="#EEADB8"/>
<stop offset="0.857843" stop-color="#902234"/>
</linearGradient>
<linearGradient id="paint2_linear_2670_1408" x1="49.0098" y1="27.4922" x2="49.0098" y2="1.66642" gradientUnits="userSpaceOnUse">
<stop offset="0.647059" stop-color="#D31C1B"/>
<stop offset="1" stop-color="#D31C1B" stop-opacity="0"/>
</linearGradient>
<linearGradient id="paint3_linear_2670_1408" x1="49.0098" y1="1.66642" x2="49.0098" y2="27.4922" gradientUnits="userSpaceOnUse">
<stop stop-color="#902234" stop-opacity="0.4"/>
<stop offset="0.656863" stop-color="#EEADB8"/>
<stop offset="0.862745" stop-color="#902234"/>
</linearGradient>
<linearGradient id="paint4_linear_2670_1408" x1="-0.000801086" y1="71.0416" x2="81.0898" y2="71.0416" gradientUnits="userSpaceOnUse">
<stop stop-color="#D31C1B"/>
<stop offset="1" stop-color="#99100F"/>
</linearGradient>
<linearGradient id="paint5_linear_2670_1408" x1="81.0898" y1="71.0416" x2="-0.000801086" y2="71.0416" gradientUnits="userSpaceOnUse">
<stop stop-color="#902234"/>
<stop offset="0.502941" stop-color="#EEADB8"/>
<stop offset="1" stop-color="#902234"/>
</linearGradient>
<linearGradient id="paint6_linear_2670_1408" x1="8.58582" y1="53.32" x2="72.0273" y2="53.32" gradientUnits="userSpaceOnUse">
<stop stop-color="#D31C1B"/>
<stop offset="1" stop-color="#99100F"/>
</linearGradient>
<linearGradient id="paint7_linear_2670_1408" x1="72.0273" y1="53.32" x2="8.58582" y2="53.32" gradientUnits="userSpaceOnUse">
<stop stop-color="#902234"/>
<stop offset="0.502941" stop-color="#EEADB8"/>
<stop offset="1" stop-color="#902234"/>
</linearGradient>
<linearGradient id="paint8_linear_2670_1408" x1="16.695" y1="36.1013" x2="63.4414" y2="36.1013" gradientUnits="userSpaceOnUse">
<stop stop-color="#D31C1B"/>
<stop offset="1" stop-color="#99100F"/>
</linearGradient>
<linearGradient id="paint9_linear_2670_1408" x1="63.4414" y1="36.1013" x2="16.695" y2="36.1013" gradientUnits="userSpaceOnUse">
<stop stop-color="#902234"/>
<stop offset="0.502941" stop-color="#EEADB8"/>
<stop offset="1" stop-color="#902234"/>
</linearGradient>
</defs>
</svg>
